<svg xmlns="http://www.w3.org/2000/svg" width="32" height="32" viewBox="0 0 32 32"><path d="M20.229 18.213a3.407 3.407 0 0 1 1.567-.413c.438 0 .85.105 1.203.318.453.277 4.453 2.933 4.914 3.256 1.07.751 1.267 2.354.391 3.604a20.366 20.366 0 0 1-1.541 1.863c-1.186 1.269-2.198 2.016-3.201 2.016-3.792-.122-8.176-3.058-12.771-7.658C6.2 16.606 3.264 12.216 3.143 8.433c-.022-.673.325-1.348.942-2.098.303-.368.669-.748 1.086-1.137a21.106 21.106 0 0 1 1.852-1.531 2.942 2.942 0 0 1 1.669-.526c.774 0 1.492.317 1.915.905.259.357 2.898 4.353 3.249 4.91.497.779.435 1.824-.077 2.796-.143.273-.51.929-.931 1.67.591.77 1.476 1.775 2.709 3.01 1.24 1.242 2.242 2.127 3.005 2.713a97.707 97.707 0 0 1 1.667-.934zm1.88 1.37a.615.615 0 0 0-.313-.069c-.225 0-.496.073-.766.214-.31.165-1.262.702-2.102 1.183l-.473.271-.446-.313c-.884-.621-2.106-1.663-3.665-3.224-1.547-1.549-2.589-2.774-3.218-3.668l-.314-.446.27-.473a99.504 99.504 0 0 0 1.178-2.1c.251-.476.275-.883.148-1.082-.335-.532-2.957-4.502-3.19-4.824-.079-.11-.272-.195-.526-.195-.237 0-.484.076-.675.208A19.275 19.275 0 0 0 6.34 6.453c-.366.341-.682.669-.931.972-.373.453-.557.811-.552.954.102 3.201 2.852 7.312 7.147 11.609 4.299 4.303 8.405 7.053 11.586 7.155.666 0 2.418-1.875 3.311-3.149.354-.505.289-1.033.028-1.216-.433-.304-4.405-2.94-4.82-3.195z"/></svg>