<svg xmlns="http://www.w3.org/2000/svg" width="32" height="32" viewBox="0 0 32 32"><path d="M15.95 14.506l4.243-4.243 1.414 1.414-4.243 4.243 4.243 4.243-1.414 1.414-4.243-4.243-4.243 4.243-1.414-1.414 4.243-4.243-4.243-4.243 1.414-1.414 4.243 4.243zM6.101 25.899C.634 20.432.634 11.567 6.101 6.1S20.433.633 25.9 6.1c5.467 5.467 5.467 14.332 0 19.799s-14.332 5.467-19.799 0zm1.414-1.414c4.686 4.686 12.284 4.686 16.971 0s4.686-12.284 0-16.971c-4.686-4.686-12.284-4.686-16.971 0s-4.686 12.284 0 16.971z"/></svg>