<svg xmlns="http://www.w3.org/2000/svg" width="32" height="32" viewBox="0 0 32 32"><path d="M16.225 26.802a79.808 79.808 0 0 0 3.689-4.441 49.778 49.778 0 0 0 2.678-3.811c1.563-2.492 2.409-4.543 2.409-5.831 0-4.803-4.018-8.719-9-8.719s-9 3.916-9 8.719c0 1.287.846 3.339 2.409 5.831a49.583 49.583 0 0 0 2.678 3.811 80.236 80.236 0 0 0 3.913 4.693l.225-.252zM16 30S5 18.638 5 12.719 9.925 2 16 2s11 4.8 11 10.719S16 30 16 30zm0-13a4 4 0 1 0 0-8 4 4 0 0 0 0 8zm0-2a2 2 0 1 1-.001-3.999A2 2 0 0 1 16 15z"/></svg>