<!DOCTYPE svg PUBLIC "-//W3C//DTD SVG 1.1//EN" "http://www.w3.org/Graphics/SVG/1.1/DTD/svg11.dtd"><svg xmlns="http://www.w3.org/2000/svg" width="30" height="30" viewBox="0 0 30 30"><path fill="#BFBFBF" d="M29.519 26.895l-6.91-6.85a12.253 12.253 0 0 0 2.469-7.365c0-6.835-5.609-12.397-12.503-12.397C5.68.283.071 5.845.071 12.68c0 6.836 5.609 12.396 12.504 12.396 3.095 0 5.926-1.127 8.112-2.98l6.837 6.777c.275.273.637.41.998.41s.723-.137.998-.41a1.393 1.393 0 0 0-.001-1.978zm-16.945-4.616c-5.339 0-9.683-4.307-9.683-9.6S7.235 3.08 12.574 3.08c5.339 0 9.682 4.306 9.682 9.599s-4.343 9.6-9.682 9.6z"/></svg>