<svg xmlns="http://www.w3.org/2000/svg" width="32" height="32" viewBox="0 0 32 32"><path d="M31.228 24.101c-.487-.342-5.833-3.899-6.487-4.299a1.939 1.939 0 0 0-1.013-.26c-.487 0-1.03.142-1.557.419-.513.273-2.073 1.159-2.834 1.595-.672-.472-2.249-1.682-4.735-4.171-2.469-2.472-3.688-4.065-4.164-4.741.436-.762 1.321-2.321 1.589-2.834.509-.966.568-1.934.153-2.585-.387-.614-3.927-5.986-4.294-6.491C7.542.258 6.927 0 6.257 0c-.528 0-1.088.161-1.575.498C4.635.532-.062 3.938 0 5.875c.174 5.445 5.459 11.843 9.863 16.249C14.266 26.532 20.659 31.825 26.12 32h.046c1.909 0 5.271-4.639 5.303-4.685.885-1.262.562-2.649-.242-3.214z"/></svg>